<svg xmlns="http://www.w3.org/2000/svg" xmlns:xlink="http://www.w3.org/1999/xlink" width="40" zoomAndPan="magnify" viewBox="0 0 30 30.000001" height="40" preserveAspectRatio="xMidYMid meet" version="1.0"><defs><clipPath id="cb7687fa57"><path d="M 4.285156 0 L 26 0 L 26 29.03125 L 4.285156 29.03125 Z M 4.285156 0 " clip-rule="nonzero"/></clipPath></defs><g clip-path="url(#cb7687fa57)"><path fill="#ffffff" d="M 9.015625 19.582031 L 6.058594 26.160156 C 6.003906 26.289062 6.019531 26.433594 6.101562 26.542969 C 6.183594 26.652344 6.320312 26.710938 6.457031 26.691406 L 9.546875 26.238281 C 9.546875 26.238281 11.257812 28.847656 11.257812 28.847656 C 11.335938 28.960938 11.464844 29.027344 11.605469 29.015625 C 11.742188 29.003906 11.863281 28.921875 11.917969 28.792969 L 14.992188 21.949219 L 18.066406 28.792969 C 18.125 28.921875 18.242188 29.003906 18.382812 29.015625 C 18.519531 29.027344 18.652344 28.960938 18.726562 28.847656 L 20.4375 26.238281 C 20.4375 26.238281 23.527344 26.691406 23.527344 26.691406 C 23.664062 26.710938 23.800781 26.652344 23.882812 26.542969 C 23.96875 26.433594 23.984375 26.289062 23.925781 26.160156 L 20.972656 19.582031 C 23.820312 17.65625 25.699219 14.398438 25.699219 10.703125 C 25.699219 4.792969 20.902344 -0.00390625 14.992188 -0.00390625 C 9.085938 -0.00390625 4.289062 4.792969 4.289062 10.703125 C 4.289062 14.398438 6.164062 17.65625 9.015625 19.582031 Z M 20.324219 19.984375 C 18.910156 20.800781 17.292969 21.300781 15.570312 21.390625 L 18.472656 27.855469 L 19.941406 25.621094 C 20.019531 25.5 20.164062 25.433594 20.3125 25.457031 C 20.3125 25.457031 22.957031 25.84375 22.957031 25.84375 Z M 9.660156 19.984375 L 7.03125 25.84375 L 9.675781 25.457031 C 9.820312 25.433594 9.964844 25.5 10.046875 25.621094 C 10.046875 25.621094 11.511719 27.855469 11.511719 27.855469 L 14.417969 21.390625 C 12.691406 21.300781 11.074219 20.800781 9.660156 19.984375 Z M 14.992188 0.75 C 20.484375 0.75 24.941406 5.210938 24.941406 10.703125 C 24.941406 16.195312 20.484375 20.652344 14.992188 20.652344 C 9.5 20.652344 5.042969 16.195312 5.042969 10.703125 C 5.042969 5.210938 9.5 0.75 14.992188 0.75 Z M 14.992188 1.796875 C 10.078125 1.796875 6.089844 5.789062 6.089844 10.703125 C 6.089844 15.617188 10.078125 19.605469 14.992188 19.605469 C 19.90625 19.605469 23.898438 15.617188 23.898438 10.703125 C 23.898438 5.789062 19.90625 1.796875 14.992188 1.796875 Z M 14.992188 2.554688 C 19.492188 2.554688 23.140625 6.203125 23.140625 10.703125 C 23.140625 15.199219 19.492188 18.851562 14.992188 18.851562 C 10.496094 18.851562 6.84375 15.199219 6.84375 10.703125 C 6.84375 6.203125 10.496094 2.554688 14.992188 2.554688 Z M 15.335938 4.503906 C 15.273438 4.367188 15.140625 4.28125 14.992188 4.28125 C 14.84375 4.28125 14.710938 4.367188 14.648438 4.503906 L 13.046875 8.011719 C 13.046875 8.011719 9.210938 8.453125 9.210938 8.453125 C 9.066406 8.46875 8.941406 8.570312 8.894531 8.710938 C 8.851562 8.851562 8.890625 9.003906 9 9.105469 L 11.839844 11.714844 C 11.839844 11.714844 11.078125 15.496094 11.078125 15.496094 C 11.046875 15.644531 11.105469 15.792969 11.226562 15.878906 C 11.34375 15.964844 11.503906 15.972656 11.632812 15.902344 L 14.992188 14.003906 C 14.992188 14.003906 18.351562 15.902344 18.351562 15.902344 C 18.480469 15.972656 18.640625 15.964844 18.761719 15.878906 C 18.878906 15.792969 18.9375 15.644531 18.910156 15.496094 L 18.144531 11.714844 C 18.144531 11.714844 20.984375 9.105469 20.984375 9.105469 C 21.09375 9.003906 21.136719 8.851562 21.089844 8.710938 C 21.042969 8.570312 20.921875 8.46875 20.773438 8.453125 L 16.941406 8.011719 C 16.941406 8.011719 15.335938 4.503906 15.335938 4.503906 Z M 14.992188 5.566406 L 16.34375 8.519531 C 16.398438 8.640625 16.511719 8.722656 16.640625 8.738281 L 19.867188 9.109375 C 19.867188 9.109375 17.476562 11.304688 17.476562 11.304688 C 17.378906 11.394531 17.335938 11.527344 17.363281 11.65625 L 18.003906 14.839844 C 18.003906 14.839844 15.179688 13.242188 15.179688 13.242188 C 15.0625 13.179688 14.921875 13.179688 14.808594 13.242188 L 11.980469 14.839844 C 11.980469 14.839844 12.625 11.65625 12.625 11.65625 C 12.648438 11.527344 12.605469 11.394531 12.507812 11.304688 L 10.117188 9.109375 C 10.117188 9.109375 13.34375 8.738281 13.34375 8.738281 C 13.472656 8.722656 13.589844 8.640625 13.644531 8.519531 Z M 14.992188 5.566406 " fill-opacity="1" fill-rule="evenodd"/><path fill="#ffffff" d="M 9.015625 19.582031 L 6.058594 26.160156 C 6.003906 26.289062 6.019531 26.433594 6.101562 26.542969 C 6.183594 26.652344 6.320312 26.710938 6.457031 26.691406 L 9.546875 26.238281 C 9.546875 26.238281 11.257812 28.847656 11.257812 28.847656 C 11.335938 28.960938 11.464844 29.027344 11.605469 29.015625 C 11.742188 29.003906 11.863281 28.921875 11.917969 28.792969 L 14.992188 21.949219 L 18.066406 28.792969 C 18.125 28.921875 18.242188 29.003906 18.382812 29.015625 C 18.519531 29.027344 18.652344 28.960938 18.726562 28.847656 L 20.4375 26.238281 C 20.4375 26.238281 23.527344 26.691406 23.527344 26.691406 C 23.664062 26.710938 23.800781 26.652344 23.882812 26.542969 C 23.96875 26.433594 23.984375 26.289062 23.925781 26.160156 L 20.972656 19.582031 C 23.820312 17.65625 25.699219 14.398438 25.699219 10.703125 C 25.699219 4.792969 20.902344 -0.00390625 14.992188 -0.00390625 C 9.085938 -0.00390625 4.289062 4.792969 4.289062 10.703125 C 4.289062 14.398438 6.164062 17.65625 9.015625 19.582031 Z M 20.324219 19.984375 C 18.910156 20.800781 17.292969 21.300781 15.570312 21.390625 L 18.472656 27.855469 L 19.941406 25.621094 C 20.019531 25.5 20.164062 25.433594 20.3125 25.457031 C 20.3125 25.457031 22.957031 25.84375 22.957031 25.84375 Z M 9.660156 19.984375 L 7.03125 25.84375 L 9.675781 25.457031 C 9.820312 25.433594 9.964844 25.5 10.046875 25.621094 C 10.046875 25.621094 11.511719 27.855469 11.511719 27.855469 L 14.417969 21.390625 C 12.691406 21.300781 11.074219 20.800781 9.660156 19.984375 Z M 14.992188 0.75 C 20.484375 0.75 24.941406 5.210938 24.941406 10.703125 C 24.941406 16.195312 20.484375 20.652344 14.992188 20.652344 C 9.5 20.652344 5.042969 16.195312 5.042969 10.703125 C 5.042969 5.210938 9.5 0.75 14.992188 0.75 Z M 14.992188 1.796875 C 10.078125 1.796875 6.089844 5.789062 6.089844 10.703125 C 6.089844 15.617188 10.078125 19.605469 14.992188 19.605469 C 19.90625 19.605469 23.898438 15.617188 23.898438 10.703125 C 23.898438 5.789062 19.90625 1.796875 14.992188 1.796875 Z M 14.992188 2.554688 C 19.492188 2.554688 23.140625 6.203125 23.140625 10.703125 C 23.140625 15.199219 19.492188 18.851562 14.992188 18.851562 C 10.496094 18.851562 6.84375 15.199219 6.84375 10.703125 C 6.84375 6.203125 10.496094 2.554688 14.992188 2.554688 Z M 15.335938 4.503906 C 15.273438 4.367188 15.140625 4.28125 14.992188 4.28125 C 14.84375 4.28125 14.710938 4.367188 14.648438 4.503906 L 13.046875 8.011719 C 13.046875 8.011719 9.210938 8.453125 9.210938 8.453125 C 9.066406 8.46875 8.941406 8.570312 8.894531 8.710938 C 8.851562 8.851562 8.890625 9.003906 9 9.105469 L 11.839844 11.714844 C 11.839844 11.714844 11.078125 15.496094 11.078125 15.496094 C 11.046875 15.644531 11.105469 15.792969 11.226562 15.878906 C 11.34375 15.964844 11.503906 15.972656 11.632812 15.902344 L 14.992188 14.003906 C 14.992188 14.003906 18.351562 15.902344 18.351562 15.902344 C 18.480469 15.972656 18.640625 15.964844 18.761719 15.878906 C 18.878906 15.792969 18.9375 15.644531 18.910156 15.496094 L 18.144531 11.714844 C 18.144531 11.714844 20.984375 9.105469 20.984375 9.105469 C 21.09375 9.003906 21.136719 8.851562 21.089844 8.710938 C 21.042969 8.570312 20.921875 8.46875 20.773438 8.453125 L 16.941406 8.011719 C 16.941406 8.011719 15.335938 4.503906 15.335938 4.503906 Z M 14.992188 5.566406 L 16.34375 8.519531 C 16.398438 8.640625 16.511719 8.722656 16.640625 8.738281 L 19.867188 9.109375 C 19.867188 9.109375 17.476562 11.304688 17.476562 11.304688 C 17.378906 11.394531 17.335938 11.527344 17.363281 11.65625 L 18.003906 14.839844 C 18.003906 14.839844 15.179688 13.242188 15.179688 13.242188 C 15.0625 13.179688 14.921875 13.179688 14.808594 13.242188 L 11.980469 14.839844 C 11.980469 14.839844 12.625 11.65625 12.625 11.65625 C 12.648438 11.527344 12.605469 11.394531 12.507812 11.304688 L 10.117188 9.109375 C 10.117188 9.109375 13.34375 8.738281 13.34375 8.738281 C 13.472656 8.722656 13.589844 8.640625 13.644531 8.519531 Z M 14.992188 5.566406 " fill-opacity="1" fill-rule="evenodd"/></g></svg>