<svg xmlns="http://www.w3.org/2000/svg" xmlns:xlink="http://www.w3.org/1999/xlink" width="40" zoomAndPan="magnify" viewBox="0 0 30 30.000001" height="40" preserveAspectRatio="xMidYMid meet" version="1.0"><defs><clipPath id="dfa95dc8eb"><path d="M 0.484375 0 L 28.742188 0 L 28.742188 28.304688 L 0.484375 28.304688 Z M 0.484375 0 " clip-rule="nonzero"/></clipPath></defs><g clip-path="url(#dfa95dc8eb)"><path fill="#ffffff" d="M 27.34375 11.699219 C 26.710938 11.292969 26.492188 10.476562 26.835938 9.804688 C 27.285156 8.933594 27.261719 7.90625 26.769531 7.058594 C 26.277344 6.207031 25.402344 5.671875 24.421875 5.625 C 23.667969 5.585938 23.070312 4.992188 23.035156 4.238281 C 22.988281 3.257812 22.453125 2.378906 21.601562 1.890625 C 20.75 1.398438 19.726562 1.375 18.855469 1.824219 C 18.183594 2.167969 17.367188 1.949219 16.957031 1.3125 C 16.429688 0.492188 15.53125 0 14.550781 0 C 13.566406 0 12.667969 0.492188 12.136719 1.316406 C 11.726562 1.953125 10.914062 2.171875 10.242188 1.824219 C 9.371094 1.375 8.339844 1.402344 7.492188 1.890625 C 6.644531 2.382812 6.105469 3.257812 6.058594 4.238281 C 6.023438 4.996094 5.429688 5.589844 4.671875 5.625 C 3.695312 5.671875 2.816406 6.207031 2.324219 7.058594 C 1.835938 7.90625 1.808594 8.9375 2.257812 9.808594 C 2.605469 10.476562 2.386719 11.292969 1.75 11.703125 C 0.925781 12.230469 0.433594 13.132812 0.433594 14.113281 C 0.433594 15.09375 0.925781 15.996094 1.753906 16.527344 C 2.386719 16.933594 2.605469 17.75 2.261719 18.421875 C 1.8125 19.292969 1.835938 20.320312 2.328125 21.171875 C 2.820312 22.019531 3.695312 22.554688 4.675781 22.601562 C 5.433594 22.640625 6.027344 23.234375 6.0625 23.988281 C 6.109375 24.96875 6.644531 25.847656 7.496094 26.335938 C 8.347656 26.828125 9.371094 26.851562 10.246094 26.40625 C 10.917969 26.058594 11.730469 26.277344 12.140625 26.914062 C 12.667969 27.734375 13.566406 28.226562 14.550781 28.226562 C 15.53125 28.226562 16.429688 27.734375 16.960938 26.910156 C 17.371094 26.273438 18.183594 26.054688 18.855469 26.402344 C 19.730469 26.851562 20.757812 26.824219 21.605469 26.335938 C 22.453125 25.84375 22.992188 24.96875 23.039062 23.984375 C 23.074219 23.230469 23.667969 22.636719 24.425781 22.597656 C 25.402344 22.550781 26.28125 22.015625 26.773438 21.167969 C 27.261719 20.316406 27.289062 19.289062 26.839844 18.417969 C 26.496094 17.746094 26.714844 16.933594 27.347656 16.523438 C 28.171875 15.996094 28.664062 15.09375 28.664062 14.113281 C 28.664062 13.132812 28.171875 12.230469 27.34375 11.699219 Z M 26.582031 15.339844 C 25.332031 16.144531 24.902344 17.746094 25.585938 19.066406 C 25.816406 19.515625 25.804688 20.027344 25.550781 20.464844 C 25.296875 20.902344 24.863281 21.167969 24.359375 21.191406 C 22.875 21.261719 21.699219 22.433594 21.628906 23.921875 C 21.605469 24.425781 21.339844 24.859375 20.902344 25.113281 C 20.464844 25.367188 19.953125 25.378906 19.503906 25.148438 C 18.183594 24.46875 16.582031 24.894531 15.777344 26.144531 C 15.5 26.570312 15.054688 26.816406 14.550781 26.816406 C 14.042969 26.816406 13.597656 26.570312 13.324219 26.148438 C 12.777344 25.296875 11.859375 24.828125 10.914062 24.828125 C 10.46875 24.828125 10.019531 24.929688 9.59375 25.148438 C 9.144531 25.378906 8.636719 25.367188 8.199219 25.113281 C 7.761719 24.863281 7.492188 24.425781 7.472656 23.921875 C 7.402344 22.4375 6.226562 21.265625 4.742188 21.191406 C 4.238281 21.167969 3.800781 20.902344 3.550781 20.464844 C 3.296875 20.027344 3.285156 19.519531 3.515625 19.070312 C 4.195312 17.746094 3.765625 16.144531 2.515625 15.339844 C 2.089844 15.066406 1.847656 14.621094 1.847656 14.113281 C 1.847656 13.605469 2.089844 13.160156 2.515625 12.886719 C 3.765625 12.082031 4.195312 10.480469 3.515625 9.160156 C 3.28125 8.710938 3.296875 8.199219 3.546875 7.761719 C 3.800781 7.324219 4.234375 7.058594 4.738281 7.035156 C 6.222656 6.964844 7.398438 5.792969 7.46875 4.304688 C 7.492188 3.800781 7.757812 3.367188 8.195312 3.113281 C 8.636719 2.863281 9.144531 2.847656 9.59375 3.082031 C 10.914062 3.761719 12.515625 3.332031 13.320312 2.082031 C 13.597656 1.65625 14.042969 1.410156 14.550781 1.410156 C 15.054688 1.410156 15.5 1.65625 15.773438 2.078125 C 16.578125 3.328125 18.179688 3.757812 19.503906 3.078125 C 19.953125 2.847656 20.460938 2.859375 20.898438 3.113281 C 21.335938 3.363281 21.605469 3.800781 21.628906 4.304688 C 21.699219 5.789062 22.871094 6.960938 24.355469 7.035156 C 24.859375 7.058594 25.296875 7.324219 25.546875 7.761719 C 25.800781 8.199219 25.8125 8.707031 25.582031 9.15625 C 24.902344 10.480469 25.332031 12.082031 26.582031 12.886719 C 27.007812 13.160156 27.25 13.605469 27.25 14.113281 C 27.25 14.621094 27.007812 15.066406 26.582031 15.339844 Z M 20.898438 10.292969 L 19.78125 9.171875 C 19.230469 8.625 18.335938 8.625 17.785156 9.171875 L 13.136719 13.820312 L 11.3125 11.996094 C 10.761719 11.445312 9.867188 11.445312 9.316406 11.996094 L 8.199219 13.113281 C 7.648438 13.664062 7.648438 14.558594 8.199219 15.109375 L 11.640625 18.554688 C 12.054688 18.96875 12.597656 19.171875 13.136719 19.171875 C 13.679688 19.171875 14.222656 18.96875 14.632812 18.554688 L 20.898438 12.289062 C 21.449219 11.738281 21.449219 10.84375 20.898438 10.292969 Z M 13.636719 17.558594 C 13.363281 17.832031 12.914062 17.832031 12.636719 17.558594 L 9.195312 14.113281 L 10.316406 12.996094 L 12.636719 15.320312 C 12.914062 15.59375 13.359375 15.59375 13.636719 15.320312 L 18.78125 10.171875 L 19.902344 11.289062 Z M 12.242188 23.023438 C 12.140625 23.316406 11.867188 23.5 11.574219 23.5 C 11.5 23.5 11.421875 23.488281 11.34375 23.460938 C 7.351562 22.09375 4.667969 18.335938 4.667969 14.113281 C 4.667969 9.246094 8.148438 5.144531 12.945312 4.363281 C 13.335938 4.300781 13.695312 4.558594 13.757812 4.945312 C 13.820312 5.328125 13.558594 5.691406 13.175781 5.753906 C 9.0625 6.425781 6.082031 9.941406 6.082031 14.113281 C 6.082031 17.734375 8.382812 20.953125 11.804688 22.125 C 12.171875 22.253906 12.367188 22.652344 12.242188 23.023438 Z M 14.550781 23.289062 C 14.550781 23.675781 14.234375 23.992188 13.84375 23.992188 C 13.453125 23.992188 13.136719 23.675781 13.136719 23.289062 C 13.136719 22.898438 13.453125 22.582031 13.84375 22.582031 C 14.234375 22.582031 14.550781 22.898438 14.550781 23.289062 Z M 24.429688 14.113281 C 24.429688 18.980469 20.949219 23.082031 16.152344 23.863281 C 16.113281 23.871094 16.074219 23.871094 16.035156 23.871094 C 15.695312 23.871094 15.398438 23.628906 15.339844 23.28125 C 15.277344 22.894531 15.539062 22.53125 15.921875 22.46875 C 20.035156 21.800781 23.015625 18.285156 23.015625 14.113281 C 23.015625 10.492188 20.714844 7.273438 17.292969 6.101562 C 16.925781 5.976562 16.730469 5.574219 16.855469 5.203125 C 16.980469 4.835938 17.382812 4.636719 17.75 4.765625 C 21.746094 6.132812 24.429688 9.890625 24.429688 14.113281 Z M 14.550781 4.941406 C 14.550781 4.550781 14.863281 4.234375 15.253906 4.234375 C 15.644531 4.234375 15.960938 4.550781 15.960938 4.941406 C 15.960938 5.328125 15.644531 5.644531 15.253906 5.644531 C 14.863281 5.644531 14.550781 5.328125 14.550781 4.941406 Z M 14.550781 4.941406 " fill-opacity="1" fill-rule="nonzero"/><path fill="#ffffff" d="M 27.34375 11.699219 C 26.710938 11.292969 26.492188 10.476562 26.835938 9.804688 C 27.285156 8.933594 27.261719 7.90625 26.769531 7.058594 C 26.277344 6.207031 25.402344 5.671875 24.421875 5.625 C 23.667969 5.585938 23.070312 4.992188 23.035156 4.238281 C 22.988281 3.257812 22.453125 2.378906 21.601562 1.890625 C 20.75 1.398438 19.726562 1.375 18.855469 1.824219 C 18.183594 2.167969 17.367188 1.949219 16.957031 1.3125 C 16.429688 0.492188 15.53125 0 14.550781 0 C 13.566406 0 12.667969 0.492188 12.136719 1.316406 C 11.726562 1.953125 10.914062 2.171875 10.242188 1.824219 C 9.371094 1.375 8.339844 1.402344 7.492188 1.890625 C 6.644531 2.382812 6.105469 3.257812 6.058594 4.238281 C 6.023438 4.996094 5.429688 5.589844 4.671875 5.625 C 3.695312 5.671875 2.816406 6.207031 2.324219 7.058594 C 1.835938 7.90625 1.808594 8.9375 2.257812 9.808594 C 2.605469 10.476562 2.386719 11.292969 1.75 11.703125 C 0.925781 12.230469 0.433594 13.132812 0.433594 14.113281 C 0.433594 15.09375 0.925781 15.996094 1.753906 16.527344 C 2.386719 16.933594 2.605469 17.75 2.261719 18.421875 C 1.8125 19.292969 1.835938 20.320312 2.328125 21.171875 C 2.820312 22.019531 3.695312 22.554688 4.675781 22.601562 C 5.433594 22.640625 6.027344 23.234375 6.0625 23.988281 C 6.109375 24.96875 6.644531 25.847656 7.496094 26.335938 C 8.347656 26.828125 9.371094 26.851562 10.246094 26.40625 C 10.917969 26.058594 11.730469 26.277344 12.140625 26.914062 C 12.667969 27.734375 13.566406 28.226562 14.550781 28.226562 C 15.53125 28.226562 16.429688 27.734375 16.960938 26.910156 C 17.371094 26.273438 18.183594 26.054688 18.855469 26.402344 C 19.730469 26.851562 20.757812 26.824219 21.605469 26.335938 C 22.453125 25.84375 22.992188 24.96875 23.039062 23.984375 C 23.074219 23.230469 23.667969 22.636719 24.425781 22.597656 C 25.402344 22.550781 26.28125 22.015625 26.773438 21.167969 C 27.261719 20.316406 27.289062 19.289062 26.839844 18.417969 C 26.496094 17.746094 26.714844 16.933594 27.347656 16.523438 C 28.171875 15.996094 28.664062 15.09375 28.664062 14.113281 C 28.664062 13.132812 28.171875 12.230469 27.34375 11.699219 Z M 26.582031 15.339844 C 25.332031 16.144531 24.902344 17.746094 25.585938 19.066406 C 25.816406 19.515625 25.804688 20.027344 25.550781 20.464844 C 25.296875 20.902344 24.863281 21.167969 24.359375 21.191406 C 22.875 21.261719 21.699219 22.433594 21.628906 23.921875 C 21.605469 24.425781 21.339844 24.859375 20.902344 25.113281 C 20.464844 25.367188 19.953125 25.378906 19.503906 25.148438 C 18.183594 24.46875 16.582031 24.894531 15.777344 26.144531 C 15.5 26.570312 15.054688 26.816406 14.550781 26.816406 C 14.042969 26.816406 13.597656 26.570312 13.324219 26.148438 C 12.777344 25.296875 11.859375 24.828125 10.914062 24.828125 C 10.46875 24.828125 10.019531 24.929688 9.59375 25.148438 C 9.144531 25.378906 8.636719 25.367188 8.199219 25.113281 C 7.761719 24.863281 7.492188 24.425781 7.472656 23.921875 C 7.402344 22.4375 6.226562 21.265625 4.742188 21.191406 C 4.238281 21.167969 3.800781 20.902344 3.550781 20.464844 C 3.296875 20.027344 3.285156 19.519531 3.515625 19.070312 C 4.195312 17.746094 3.765625 16.144531 2.515625 15.339844 C 2.089844 15.066406 1.847656 14.621094 1.847656 14.113281 C 1.847656 13.605469 2.089844 13.160156 2.515625 12.886719 C 3.765625 12.082031 4.195312 10.480469 3.515625 9.160156 C 3.28125 8.710938 3.296875 8.199219 3.546875 7.761719 C 3.800781 7.324219 4.234375 7.058594 4.738281 7.035156 C 6.222656 6.964844 7.398438 5.792969 7.46875 4.304688 C 7.492188 3.800781 7.757812 3.367188 8.195312 3.113281 C 8.636719 2.863281 9.144531 2.847656 9.59375 3.082031 C 10.914062 3.761719 12.515625 3.332031 13.320312 2.082031 C 13.597656 1.65625 14.042969 1.410156 14.550781 1.410156 C 15.054688 1.410156 15.5 1.65625 15.773438 2.078125 C 16.578125 3.328125 18.179688 3.757812 19.503906 3.078125 C 19.953125 2.847656 20.460938 2.859375 20.898438 3.113281 C 21.335938 3.363281 21.605469 3.800781 21.628906 4.304688 C 21.699219 5.789062 22.871094 6.960938 24.355469 7.035156 C 24.859375 7.058594 25.296875 7.324219 25.546875 7.761719 C 25.800781 8.199219 25.8125 8.707031 25.582031 9.15625 C 24.902344 10.480469 25.332031 12.082031 26.582031 12.886719 C 27.007812 13.160156 27.25 13.605469 27.25 14.113281 C 27.25 14.621094 27.007812 15.066406 26.582031 15.339844 Z M 20.898438 10.292969 L 19.78125 9.171875 C 19.230469 8.625 18.335938 8.625 17.785156 9.171875 L 13.136719 13.820312 L 11.3125 11.996094 C 10.761719 11.445312 9.867188 11.445312 9.316406 11.996094 L 8.199219 13.113281 C 7.648438 13.664062 7.648438 14.558594 8.199219 15.109375 L 11.640625 18.554688 C 12.054688 18.96875 12.597656 19.171875 13.136719 19.171875 C 13.679688 19.171875 14.222656 18.96875 14.632812 18.554688 L 20.898438 12.289062 C 21.449219 11.738281 21.449219 10.84375 20.898438 10.292969 Z M 13.636719 17.558594 C 13.363281 17.832031 12.914062 17.832031 12.636719 17.558594 L 9.195312 14.113281 L 10.316406 12.996094 L 12.636719 15.320312 C 12.914062 15.59375 13.359375 15.59375 13.636719 15.320312 L 18.78125 10.171875 L 19.902344 11.289062 Z M 12.242188 23.023438 C 12.140625 23.316406 11.867188 23.5 11.574219 23.5 C 11.5 23.5 11.421875 23.488281 11.34375 23.460938 C 7.351562 22.09375 4.667969 18.335938 4.667969 14.113281 C 4.667969 9.246094 8.148438 5.144531 12.945312 4.363281 C 13.335938 4.300781 13.695312 4.558594 13.757812 4.945312 C 13.820312 5.328125 13.558594 5.691406 13.175781 5.753906 C 9.0625 6.425781 6.082031 9.941406 6.082031 14.113281 C 6.082031 17.734375 8.382812 20.953125 11.804688 22.125 C 12.171875 22.253906 12.367188 22.652344 12.242188 23.023438 Z M 14.550781 23.289062 C 14.550781 23.675781 14.234375 23.992188 13.84375 23.992188 C 13.453125 23.992188 13.136719 23.675781 13.136719 23.289062 C 13.136719 22.898438 13.453125 22.582031 13.84375 22.582031 C 14.234375 22.582031 14.550781 22.898438 14.550781 23.289062 Z M 24.429688 14.113281 C 24.429688 18.980469 20.949219 23.082031 16.152344 23.863281 C 16.113281 23.871094 16.074219 23.871094 16.035156 23.871094 C 15.695312 23.871094 15.398438 23.628906 15.339844 23.28125 C 15.277344 22.894531 15.539062 22.53125 15.921875 22.46875 C 20.035156 21.800781 23.015625 18.285156 23.015625 14.113281 C 23.015625 10.492188 20.714844 7.273438 17.292969 6.101562 C 16.925781 5.976562 16.730469 5.574219 16.855469 5.203125 C 16.980469 4.835938 17.382812 4.636719 17.75 4.765625 C 21.746094 6.132812 24.429688 9.890625 24.429688 14.113281 Z M 14.550781 4.941406 C 14.550781 4.550781 14.863281 4.234375 15.253906 4.234375 C 15.644531 4.234375 15.960938 4.550781 15.960938 4.941406 C 15.960938 5.328125 15.644531 5.644531 15.253906 5.644531 C 14.863281 5.644531 14.550781 5.328125 14.550781 4.941406 Z M 14.550781 4.941406 " fill-opacity="1" fill-rule="nonzero"/></g></svg>