<svg xmlns="http://www.w3.org/2000/svg" xmlns:xlink="http://www.w3.org/1999/xlink" width="40" zoomAndPan="magnify" viewBox="0 0 30 30.000001" height="40" preserveAspectRatio="xMidYMid meet" version="1.0"><defs><clipPath id="8811c93724"><path d="M 0.90625 5.25 L 29.214844 5.25 L 29.214844 8 L 0.90625 8 Z M 0.90625 5.25 " clip-rule="nonzero"/></clipPath><clipPath id="6d526792b7"><path d="M 0.90625 13 L 29.214844 13 L 29.214844 16 L 0.90625 16 Z M 0.90625 13 " clip-rule="nonzero"/></clipPath><clipPath id="048c8c2136"><path d="M 0.90625 21 L 29.214844 21 L 29.214844 24 L 0.90625 24 Z M 0.90625 21 " clip-rule="nonzero"/></clipPath><clipPath id="a674d69e7c"><path d="M 0.90625 5.25 L 29.214844 5.25 L 29.214844 8 L 0.90625 8 Z M 0.90625 5.25 " clip-rule="nonzero"/></clipPath><clipPath id="f3c24c6737"><path d="M 0.90625 13 L 29.214844 13 L 29.214844 16 L 0.90625 16 Z M 0.90625 13 " clip-rule="nonzero"/></clipPath><clipPath id="9c630d73a3"><path d="M 0.90625 21 L 29.214844 21 L 29.214844 24 L 0.90625 24 Z M 0.90625 21 " clip-rule="nonzero"/></clipPath></defs><g clip-path="url(#8811c93724)"><path fill="#ffffff" d="M 29.089844 6.464844 C 29.089844 7.132812 28.546875 7.671875 27.878906 7.671875 L 2.117188 7.671875 C 1.449219 7.671875 0.90625 7.132812 0.90625 6.464844 C 0.90625 5.796875 1.449219 5.257812 2.117188 5.257812 L 27.878906 5.257812 C 28.546875 5.257812 29.089844 5.796875 29.089844 6.464844 Z M 29.089844 6.464844 " fill-opacity="1" fill-rule="evenodd"/></g><g clip-path="url(#6d526792b7)"><path fill="#ffffff" d="M 29.089844 14.515625 C 29.089844 15.183594 28.546875 15.722656 27.878906 15.722656 L 2.117188 15.722656 C 1.449219 15.722656 0.90625 15.183594 0.90625 14.515625 C 0.90625 13.847656 1.449219 13.308594 2.117188 13.308594 L 27.878906 13.308594 C 28.546875 13.308594 29.089844 13.847656 29.089844 14.515625 Z M 29.089844 14.515625 " fill-opacity="1" fill-rule="evenodd"/></g><g clip-path="url(#048c8c2136)"><path fill="#ffffff" d="M 29.089844 22.566406 C 29.089844 23.234375 28.546875 23.773438 27.878906 23.773438 L 2.117188 23.773438 C 1.449219 23.773438 0.90625 23.234375 0.90625 22.566406 C 0.90625 21.898438 1.449219 21.359375 2.117188 21.359375 L 27.878906 21.359375 C 28.546875 21.359375 29.089844 21.898438 29.089844 22.566406 Z M 29.089844 22.566406 " fill-opacity="1" fill-rule="evenodd"/></g><g clip-path="url(#a674d69e7c)"><path fill="#ffffff" d="M 29.089844 6.464844 C 29.089844 7.132812 28.546875 7.671875 27.878906 7.671875 L 2.117188 7.671875 C 1.449219 7.671875 0.90625 7.132812 0.90625 6.464844 C 0.90625 5.796875 1.449219 5.257812 2.117188 5.257812 L 27.878906 5.257812 C 28.546875 5.257812 29.089844 5.796875 29.089844 6.464844 Z M 29.089844 6.464844 " fill-opacity="1" fill-rule="evenodd"/></g><g clip-path="url(#f3c24c6737)"><path fill="#ffffff" d="M 29.089844 14.515625 C 29.089844 15.183594 28.546875 15.722656 27.878906 15.722656 L 2.117188 15.722656 C 1.449219 15.722656 0.90625 15.183594 0.90625 14.515625 C 0.90625 13.847656 1.449219 13.308594 2.117188 13.308594 L 27.878906 13.308594 C 28.546875 13.308594 29.089844 13.847656 29.089844 14.515625 Z M 29.089844 14.515625 " fill-opacity="1" fill-rule="evenodd"/></g><g clip-path="url(#9c630d73a3)"><path fill="#ffffff" d="M 29.089844 22.566406 C 29.089844 23.234375 28.546875 23.773438 27.878906 23.773438 L 2.117188 23.773438 C 1.449219 23.773438 0.90625 23.234375 0.90625 22.566406 C 0.90625 21.898438 1.449219 21.359375 2.117188 21.359375 L 27.878906 21.359375 C 28.546875 21.359375 29.089844 21.898438 29.089844 22.566406 Z M 29.089844 22.566406 " fill-opacity="1" fill-rule="evenodd"/></g></svg>